<svg xmlns="http://www.w3.org/2000/svg" version="1.0" viewBox="0 0 1080 1350" preserveAspectRatio="xMidYMid meet" x="0px" y="0px"><g transform="translate(0.000000,1080.000000) scale(0.100000,-0.100000)" fill="#000000" stroke="none"><path d="M3467 8929 c-110 -16 -222 -51 -335 -105 -93 -44 -129 -56 -200 -64 -252 -32 -540 -138 -752 -277 -411 -272 -694 -719 -772 -1223 -19 -126 -19 -4313 0 -4445 43 -289 167 -584 345 -819 74 -98 243 -267 346 -345 174 -132 409 -244 629 -300 206 -53 94 -51 2683 -51 2129 0 2413 2 2503 16 519 80 971 379 1248 826 86 139 169 336 212 503 47 184 46 127 46 2386 0 1882 -2 2133 -16 2223 -43 277 -136 517 -290 748 -97 145 -321 369 -464 464 -233 155 -478 248 -759 290 -83 13 -122 24 -184 55 -43 22 -118 53 -167 70 -184 61 -105 59 -2150 58 -1026 -1 -1891 -5 -1923 -10z m3868 -205 c409 -71 694 -342 803 -764 16 -60 17 -225 17 -2065 l0 -2000 -23 -92 c-31 -123 -124 -307 -201 -399 -109 -131 -280 -249 -437 -302 -160 -55 -70 -53 -2129 -50 l-1900 3 -76 22 c-177 50 -315 128 -438 247 -125 121 -213 266 -268 443 l-28 88 -3 2000 c-2 1422 0 2017 8 2060 16 84 57 208 96 286 40 81 136 209 201 270 104 97 258 184 397 224 151 44 113 43 2046 44 1632 1 1855 -1 1935 -15z m-4642 -247 c-55 -60 -158 -245 -185 -332 -33 -109 -49 -198 -59 -325 -7 -98 -9 -765 -7 -2045 4 -1891 4 -1900 25 -1985 40 -161 97 -299 166 -399 28 -42 29 -45 14 -75 -31 -64 -698 -1221 -705 -1223 -8 -3 -64 71 -111 147 -60 97 -149 292 -175 385 -64 226 -59 55 -64 2320 -2 1515 0 2096 8 2195 27 305 126 567 307 808 152 201 357 370 577 473 92 43 218 89 225 83 3 -2 -5 -14 -16 -27z m5517 -5 c85 -33 226 -103 294 -147 216 -138 444 -392 560 -624 42 -83 89 -221 124 -359 l27 -107 3 -2100 c2 -1484 0 -2132 -8 -2210 -21 -211 -67 -371 -155 -550 -56 -112 -164 -280 -180 -280 -5 0 -170 280 -366 622 l-357 623 48 80 c60 99 101 197 137 326 l28 99 3 1980 c2 1330 0 2010 -7 2071 -21 183 -97 379 -207 537 -62 88 -64 86 56 39z m-5225 -5437 c131 -84 278 -141 448 -172 84 -16 245 -18 1882 -21 1206 -2 1832 0 1920 8 290 23 495 104 712 279 45 36 64 46 71 38 5 -7 154 -264 332 -572 177 -308 336 -582 352 -609 35 -58 37 -54 -88 -152 -147 -115 -320 -204 -512 -264 -220 -68 -23 -63 -2612 -67 -2440 -4 -2497 -4 -2671 38 -251 59 -522 198 -695 356 l-42 38 349 605 c191 333 353 613 359 623 10 16 17 12 78 -39 37 -32 90 -72 117 -89z"/><path d="M5457 7860 c-89 -23 -173 -92 -218 -180 -34 -67 -38 -177 -9 -255 26 -70 76 -122 689 -711 l375 -359 -1345 -5 -1344 -5 -45 -22 c-62 -31 -137 -98 -160 -142 -68 -134 -41 -306 62 -396 24 -21 68 -49 98 -64 l55 -26 1339 -5 1340 -5 -375 -359 c-613 -589 -663 -641 -689 -711 -59 -161 18 -346 175 -416 38 -17 70 -23 130 -23 139 -1 125 -12 696 535 1209 1159 1154 1104 1185 1172 41 88 41 186 0 274 -31 68 24 13 -1185 1172 -552 529 -554 530 -675 537 -33 2 -78 -1 -99 -6z"/></g><text x="0" y="1095" fill="#000000" font-size="5px" font-weight="bold" font-family="'Helvetica Neue', Helvetica, Arial-Unicode, Arial, Sans-serif">Created by 세희 조</text><text x="0" y="1100" fill="#000000" font-size="5px" font-weight="bold" font-family="'Helvetica Neue', Helvetica, Arial-Unicode, Arial, Sans-serif">from the Noun Project</text></svg>